<?xml version="1.0" ?>
<!DOCTYPE svg  PUBLIC '-//W3C//DTD SVG 1.1//EN'  'http://www.w3.org/Graphics/SVG/1.1/DTD/svg11.dtd'>
<!-- Uploaded to: SVG Repo, www.svgrepo.com, Generator: SVG Repo Mixer Tools -->
<svg fill="#000000" width="800px" height="800px" viewBox="0 0 846.66 846.66" style="shape-rendering:geometricPrecision; text-rendering:geometricPrecision; image-rendering:optimizeQuality; fill-rule:evenodd; clip-rule:evenodd" version="1.1" xml:space="preserve" xmlns="http://www.w3.org/2000/svg" xmlns:xlink="http://www.w3.org/1999/xlink">
<defs>
<style type="text/css">
   <![CDATA[
    .fil0 {fill:black;fill-rule:nonzero}
   ]]>
  </style>
</defs>
<g id="Layer_x0020_1">
<path class="fil0" d="M57.98 608.26l50.29 91.65 36.68 -20.13c4.52,-2.48 9.56,-3.09 14.24,-2.1l257.16 55.18 188.76 -93.08c2.56,-14.58 -3.92,-20.59 -17.2,-25.22l-158.08 84.99c-5.03,2.71 -10.69,3.11 -15.76,1.58l-116.27 -35.07c-6.35,-1.92 -11.11,-6.63 -13.33,-12.38l-25.91 -52.83c-5,-10.23 -0.76,-22.59 9.47,-27.59 3.1,-1.52 6.4,-2.18 9.63,-2.09l128.87 3.91c20.2,-5.94 31.63,-12.58 22.54,-34.4l-172.98 -42.93c-66.08,37.36 -131.58,74 -198.11,110.51zm495.3 -192.18c-27.25,0 -27.25,-41.43 0,-41.43l30.73 0 0 -24.1 -30.73 0c-27.25,0 -27.25,-41.43 0,-41.43l30.73 0 0 -1.57 -74.01 -119.83c-14.25,-23.07 20.87,-44.76 35.12,-21.69l59.61 96.51 59.61 -96.51c14.24,-23.07 49.36,-1.38 35.12,21.69l-74.02 119.83 0 1.57 30.73 0c27.25,0 27.25,41.43 0,41.43l-30.73 0 0 24.1 30.73 0c27.25,0 27.25,41.43 0,41.43l-30.73 0 0 15.27c0,27.25 -41.43,27.25 -41.43,0l0 -15.27 -30.73 0zm51.45 -303.25c-105.65,0 -191.29,85.64 -191.29,191.28 0,105.65 85.64,191.29 191.29,191.29 105.64,0 191.28,-85.64 191.28,-191.29 0,-105.64 -85.64,-191.28 -191.28,-191.28zm0 -41.43c128.52,0 232.71,104.19 232.71,232.71 0,128.52 -104.19,232.72 -232.71,232.72 -128.53,0 -232.72,-104.19 -232.72,-232.72 0,-128.52 104.2,-232.71 232.72,-232.71zm-522.77 666.54l-70.18 -127.91c-5.5,-10.01 -1.84,-22.58 8.17,-28.08 74.69,-40.98 148.25,-81.96 222.42,-123.9 4.53,-2.75 10.11,-3.77 15.66,-2.41l189.97 47.16c5.64,1.27 10.72,4.88 13.67,10.37 27.2,50.68 6.75,87.97 -46.96,102.57 -1.9,0.52 -3.91,0.77 -5.98,0.71l-98.03 -2.99 7.61 15.52 99.55 30.07 157.92 -84.9c4.35,-2.34 9.55,-3.14 14.73,-1.86 44.79,11.13 66.46,41.96 52.09,87.47 -1.54,5.43 -5.28,10.21 -10.74,12.9l-203.02 100.11c-4.16,2.26 -9.12,3.1 -14.11,2.04l-256.63 -55.07 -48.06 26.37c-10.01,5.5 -22.58,1.84 -28.08,-8.17z"/>
</g>
</svg>